<?xml version="1.0" encoding="UTF-8"?>
<svg xmlns="http://www.w3.org/2000/svg" xmlns:xlink="http://www.w3.org/1999/xlink" width="80px" height="28px" viewBox="0 0 80 28" version="1.1">
<g id="surface1">
<path style=" stroke:none;fill-rule:nonzero;fill:rgb(0%,0%,0%);fill-opacity:1;" d="M 64.519531 18.285156 L 28.414062 18.285156 C 27.0625 18.285156 25.867188 17.976562 25.472656 17.523438 L 13.785156 4.152344 L 3.511719 4.152344 C 1.816406 4.152344 0.441406 3.667969 0.441406 3.074219 C 0.441406 2.480469 1.816406 2 3.511719 2 L 16.058594 2 C 17.410156 2 18.605469 2.308594 19 2.761719 L 30.6875 16.132812 L 62.476562 16.132812 L 71.773438 8.390625 L 66.484375 8.390625 C 64.789062 8.390625 63.414062 7.910156 63.414062 7.316406 C 63.414062 6.722656 64.789062 6.238281 66.484375 6.238281 L 76.398438 6.238281 C 77.425781 6.238281 78.386719 6.421875 78.957031 6.71875 C 79.527344 7.019531 79.628906 7.402344 79.230469 7.734375 L 67.355469 17.625 C 66.875 18.027344 65.757812 18.285156 64.519531 18.285156 Z M 64.519531 18.285156 "/>
<path style=" stroke:none;fill-rule:nonzero;fill:rgb(0%,0%,0%);fill-opacity:1;" d="M 31.210938 23 C 31.210938 24.042969 28.789062 24.890625 25.800781 24.890625 C 22.8125 24.890625 20.390625 24.042969 20.390625 23 C 20.390625 21.953125 22.8125 21.105469 25.800781 21.105469 C 28.789062 21.105469 31.210938 21.953125 31.210938 23 Z M 31.210938 23 "/>
<path style=" stroke:none;fill-rule:nonzero;fill:rgb(0%,0%,0%);fill-opacity:1;" d="M 71.347656 23 C 71.347656 24.042969 68.925781 24.890625 65.9375 24.890625 C 62.953125 24.890625 60.53125 24.042969 60.53125 23 C 60.53125 21.953125 62.953125 21.105469 65.9375 21.105469 C 68.925781 21.105469 71.347656 21.953125 71.347656 23 Z M 71.347656 23 "/>
<path style=" stroke:none;fill-rule:nonzero;fill:rgb(0%,0%,0%);fill-opacity:1;" d="M 55.128906 6.160156 L 46.308594 6.160156 L 46.308594 3.074219 C 46.308594 2.480469 44.933594 2 43.238281 2 C 41.539062 2 40.164062 2.480469 40.164062 3.074219 L 40.164062 6.160156 L 31.347656 6.160156 C 29.648438 6.160156 28.273438 6.644531 28.273438 7.238281 C 28.273438 7.832031 29.648438 8.3125 31.347656 8.3125 L 40.164062 8.3125 L 40.164062 11.398438 C 40.164062 11.992188 41.539062 12.472656 43.238281 12.472656 C 44.933594 12.472656 46.308594 11.992188 46.308594 11.398438 L 46.308594 8.3125 L 55.128906 8.3125 C 56.824219 8.3125 58.199219 7.832031 58.199219 7.238281 C 58.199219 6.644531 56.824219 6.160156 55.128906 6.160156 Z M 55.128906 6.160156 "/>
</g>
</svg>
