<?xml version="1.0" encoding="UTF-8"?>
<!DOCTYPE svg PUBLIC "-//W3C//DTD SVG 1.1//EN" "http://www.w3.org/Graphics/SVG/1.1/DTD/svg11.dtd">
<svg xmlns="http://www.w3.org/2000/svg" version="1.1" width="65px" height="80px" style="shape-rendering:geometricPrecision; text-rendering:geometricPrecision; image-rendering:optimizeQuality; fill-rule:evenodd; clip-rule:evenodd" xmlns:xlink="http://www.w3.org/1999/xlink">
<g><path style="opacity:1" fill="#fdfdfd" d="M -0.5,-0.5 C 21.1667,-0.5 42.8333,-0.5 64.5,-0.5C 64.5,26.1667 64.5,52.8333 64.5,79.5C 42.8333,79.5 21.1667,79.5 -0.5,79.5C -0.5,52.8333 -0.5,26.1667 -0.5,-0.5 Z"/></g>
<g><path style="opacity:1" fill="#646464" d="M 25.5,36.5 C 24.8333,37.5 24.1667,38.5 23.5,39.5C 23.1525,33.7725 22.3192,28.1058 21,22.5C 19.4107,20.9736 17.5774,19.8069 15.5,19C 17.8098,18.5034 20.1432,18.3367 22.5,18.5C 23.2854,24.5457 24.2854,30.5457 25.5,36.5 Z"/></g>
<g><path style="opacity:1" fill="#535353" d="M 44.5,40.5 C 38.1667,39.8333 31.8333,39.1667 25.5,38.5C 31.8333,38.5 38.1667,38.5 44.5,38.5C 44.3792,34.1753 45.0458,30.0087 46.5,26C 39.8085,25.8309 33.1419,25.3309 26.5,24.5C 33.4684,23.503 40.4684,23.1697 47.5,23.5C 47.5075,29.4789 46.5075,35.1455 44.5,40.5 Z"/></g>
<g><path style="opacity:1" fill="#434343" d="M 25.5,36.5 C 25.5,37.1667 25.5,37.8333 25.5,38.5C 31.8333,39.1667 38.1667,39.8333 44.5,40.5C 37.825,40.3337 31.1583,40.5004 24.5,41C 23.1667,42 23.1667,43 24.5,44C 31.1915,44.1691 37.8581,44.6691 44.5,45.5C 37.5237,46.6644 30.5237,46.8311 23.5,46C 22.1888,43.7265 22.1888,41.5598 23.5,39.5C 24.1667,38.5 24.8333,37.5 25.5,36.5 Z"/></g>
<g><path style="opacity:1" fill="#505050" d="M 23.5,48.5 C 28.7473,48.6398 29.7473,50.8064 26.5,55C 25.2161,55.6838 24.0495,55.5171 23,54.5C 22.3224,52.4024 22.4891,50.4024 23.5,48.5 Z"/></g>
<g><path style="opacity:1" fill="#efefef" d="M 23.5,50.5 C 26.5476,50.494 27.0476,51.494 25,53.5C 23.9614,52.7562 23.4614,51.7562 23.5,50.5 Z"/></g>
<g><path style="opacity:1" fill="#545454" d="M 39.5,48.5 C 44.7473,48.6398 45.7473,50.8064 42.5,55C 41.2161,55.6838 40.0495,55.5171 39,54.5C 38.3224,52.4024 38.4891,50.4024 39.5,48.5 Z"/></g>
<g><path style="opacity:1" fill="#dddddd" d="M 39.5,50.5 C 40.5,50.5 41.5,50.5 42.5,50.5C 41.7542,54.31 40.7542,54.31 39.5,50.5 Z"/></g>
<g><path style="opacity:1" fill="#bdbdbd" d="M 37.5,75.5 C 42.1687,75.4066 46.502,75.7399 50.5,76.5C 46.3843,78.2806 42.0509,78.9473 37.5,78.5C 37.5,77.5 37.5,76.5 37.5,75.5 Z"/></g>
<g><path style="opacity:1" fill="#b9b9b9" d="M 14.5,75.5 C 20.9686,76.0342 27.6353,76.5342 34.5,77C 27.5841,78.7575 20.5841,78.9241 13.5,77.5C 13.8627,76.8165 14.1961,76.1499 14.5,75.5 Z"/></g>
</svg>
